<svg class="svg-icon" style="width: 1em; height: 1em;vertical-align: middle;fill: currentColor;overflow: hidden;" viewBox="0 0 1024 1024" version="1.1" xmlns="http://www.w3.org/2000/svg"><path d="M551.071877 921.015487c-14.121626-0.716314-27.936259-1.944282-40.932248-3.581572-11.256368-1.63729-21.3871 6.54916-22.819728 17.805528-1.432629 11.256368 6.54916 21.48943 17.703197 22.819728 13.916964 1.739621 28.754904 3.069919 43.797505 3.786233 0.409322 0 0.716314 0 1.125637 0 10.847046 0 19.85214-8.493441 20.466124-19.340487C571.026348 931.248549 562.430576 921.629471 551.071877 921.015487M326.149175 185.258331c-79.101569 0-143.262868 64.058968-143.262868 143.160537s64.161299 143.160537 143.262868 143.160537 143.262868-64.161299 143.262868-143.160537C469.309712 249.317299 405.250744 185.258331 326.149175 185.258331M326.149175 430.442496c-56.486502 0-102.33062-45.844118-102.33062-102.33062s45.844118-102.33062 102.33062-102.33062 102.33062 45.844118 102.33062 102.33062S382.635677 430.442496 326.149175 430.442496M957.529099 309.180711c-5.218862-10.130731-17.498536-14.019295-27.526937-8.800433 0 0-6.958482 3.581572-18.624173 10.233062-9.82374 5.628184-13.20065 18.11252-7.674796 27.936259 3.786233 6.65149 10.744715 10.335393 17.805528 10.335393 3.479241 0 6.958482-0.818645 10.130731-2.660596 10.540054-5.935176 16.884552-9.312086 17.089214-9.414417C958.757067 331.488787 962.64563 319.209112 957.529099 309.180711M718.587102 512c3.27458 1.944282 6.856152 2.865257 10.437723 2.865257 6.958482 0 13.814634-3.581572 17.600867-10.028401 6.139837-10.335393 13.814634-21.080108 22.819728-31.824823 7.265474-8.698103 6.139837-21.591761-2.558265-28.857235s-21.591761-6.139837-28.857235 2.558265c-10.437723 12.484336-19.442818 25.071002-26.708292 37.350676C705.693444 493.682819 708.865693 506.167155 718.587102 512M346.001315 819.503513c-0.204661-11.154038-9.312086-20.159132-20.466124-20.159132-11.358699 0-20.466124 9.107425-20.466124 20.466124 0 1.944282 0.306992 12.382005 5.628184 26.912953 3.069919 8.28878 10.847046 13.405311 19.238157 13.405311 2.353604 0 4.809539-0.409322 7.163143-1.330298 10.642384-3.888564 15.963577-15.656585 12.075013-26.298969C346.308307 825.029366 346.001315 819.912835 346.001315 819.503513M431.652044 899.833049c-12.995989-4.707209-24.866341-10.130731-35.099403-16.168238-9.721409-5.730515-22.308075-2.455935-28.03859 7.265474-5.730515 9.721409-2.455935 22.308075 7.265474 28.03859 12.484336 7.367805 26.708292 13.814634 42.057885 19.442818 2.251274 0.818645 4.604878 1.227967 6.958482 1.227967 8.391111 0 16.270569-5.218862 19.238157-13.507642C447.820282 915.387303 442.294428 903.619282 431.652044 899.833049M785.408997 878.752942c-9.619078 6.65149-20.977777 12.688997-33.564443 17.907858-10.437723 4.297886-15.451924 16.270569-11.154038 26.708292 3.27458 7.879458 10.949376 12.688997 18.931165 12.688997 2.558265 0 5.218862-0.511653 7.777127-1.534959 15.349593-6.344498 29.266557-13.814634 41.34157-22.103414 9.312086-6.446829 11.56336-19.238157 5.218862-28.447912C807.41008 874.659717 794.618752 872.306112 785.408997 878.752942M326.149175 62.154595c-146.94677 0-265.957281 119.931486-265.957281 267.799232 0 217.657228 265.957281 427.844322 265.957281 427.844322s265.957281-210.187093 265.957281-427.844322C592.106456 182.086082 472.993614 62.154595 326.149175 62.154595M326.046844 704.074573c-24.354688-21.694091-62.933331-58.533115-101.511975-104.684224-56.384172-67.538209-123.513058-169.050184-123.513058-269.334191 0-125.150348 100.897991-226.969315 225.025033-226.969315s225.025033 101.818967 225.025033 226.969315C551.174208 487.440651 389.69649 647.178749 326.046844 704.074573M836.881298 358.197078c-11.461029 8.18645-23.229051 17.089214-34.894741 26.605961-8.800433 7.163143-10.130731 20.056801-2.967588 28.754904 4.093225 5.0142 9.92607 7.572466 15.861246 7.572466 4.502547 0 9.107425-1.534959 12.893658-4.604878 10.949376-8.902764 22.103414-17.396205 32.848129-25.071002 9.209756-6.54916 11.256368-19.340487 4.707209-28.550243C858.882382 353.694531 846.091054 351.647919 836.881298 358.197078M839.848886 765.575276c-11.051707 2.251274-18.21485 13.098319-15.861246 24.150026 1.330298 6.65149 2.046612 13.098319 2.046612 19.238157 0 5.0142-0.511653 10.028401-1.432629 14.83794-2.148943 11.154038 5.116531 21.796422 16.168238 23.945365 1.330298 0.306992 2.660596 0.409322 3.888564 0.409322 9.619078 0 18.21485-6.753821 20.056801-16.57756 1.432629-7.367805 2.148943-14.94027 2.148943-22.615067 0-8.902764-0.920976-18.21485-2.865257-27.526937C861.645308 770.384815 850.798263 763.324002 839.848886 765.575276M822.555012 697.627744c-8.595772-11.358699-18.624173-22.717398-29.67588-33.973766-7.879458-8.084119-20.875446-8.084119-28.959565-0.204661-8.084119 7.879458-8.084119 20.875446-0.204661 28.959565 9.82374 9.92607 18.726503 20.159132 26.298969 30.085202 4.093225 5.321192 10.130731 8.084119 16.270569 8.084119 4.297886 0 8.698103-1.330298 12.382005-4.195555C827.773873 719.321836 829.513494 706.530508 822.555012 697.627744M739.053226 605.427856c-5.832845-10.437723-9.414417-21.3871-10.642384-32.336476-1.227967-11.256368-11.051707-19.340487-22.512736-18.11252-11.256368 1.227967-19.340487 11.256368-18.11252 22.512736 1.739621 16.47523 6.958482 32.643468 15.554254 47.993061 3.786233 6.65149 10.744715 10.437723 17.907858 10.437723 3.37691 0 6.856152-0.818645 10.028401-2.660596C741.099838 627.735931 744.579079 615.251595 739.053226 605.427856M674.584935 916.615271c-12.995989 1.841951-26.708292 3.27458-40.727587 4.093225-11.256368 0.716314-19.85214 10.437723-19.135826 21.796422 0.716314 10.847046 9.721409 19.135826 20.363793 19.135826 0.409322 0 0.920976 0 1.330298 0 15.042601-1.023306 29.77821-2.455935 43.899836-4.502547 11.154038-1.63729 18.931165-11.972683 17.396205-23.12672C696.074366 922.857439 685.738973 914.977981 674.584935 916.615271"  /></svg>