<svg class="svg-icon" style="width: 1em; height: 1em;vertical-align: middle;fill: currentColor;overflow: hidden;" viewBox="0 0 1024 1024" version="1.1" xmlns="http://www.w3.org/2000/svg"><path d="M341.830824 1023.828957c-11.516636 0-22.393459-4.478692-30.540413-12.625646a43.635255 43.635255 0 0 1-12.6683-30.625721v-209.901358L31.052263 605.476484a64.749088 64.749088 0 0 1 4.734618-113.11896L992.691385 2.473944a10.151702 10.151702 0 0 1 1.706168-0.682467l0.938393-0.341234a20.601983 20.601983 0 0 1 13.265458-0.298579c0.554505 0.085308 0.682467 0.170617 1.194318 0.341233a21.753646 21.753646 0 0 1 5.800972 3.24172l1.322281 1.10901a8.957384 8.957384 0 0 1 1.535551 1.748822 20.431366 20.431366 0 0 1 2.644561 3.924187l0.938393 1.962094A19.706244 19.706244 0 0 1 1023.700994 20.431366v1.364934a19.66359 19.66359 0 0 1-0.554505 4.734617L791.662102 974.008842a65.68748 65.68748 0 0 1-64.066621 49.820115c-12.412375 0-24.483515-3.412337-35.019104-9.853122l-199.707003-123.270662-120.498137 120.455484a42.739516 42.739516 0 0 1-30.540413 12.6683z m373.139012-46.194508a24.056973 24.056973 0 0 0 21.455067 1.834131 22.649384 22.649384 0 0 0 13.777309-15.654094l211.94876-867.45863L353.219497 754.254362l361.750339 223.380087z m-373.693517 2.985795l114.313278-113.033652-114.313278-70.55006v183.583712z m-25.080674-249.185884L905.036987 95.289501 55.023928 530.447732a22.137534 22.137534 0 0 0-1.620859 38.772675l262.792576 162.213953z"  /></svg>